<svg id="visual" viewBox="0 0 900 600" width="900" height="600" xmlns="http://www.w3.org/2000/svg" xmlns:xlink="http://www.w3.org/1999/xlink" version="1.1"><path d="M0 470L25 461.5C50 453 100 436 150 424.8C200 413.7 250 408.3 300 423.7C350 439 400 475 450 495.3C500 515.7 550 520.3 600 517.5C650 514.7 700 504.3 750 492.7C800 481 850 468 875 461.5L900 455L900 601L875 601C850 601 800 601 750 601C700 601 650 601 600 601C550 601 500 601 450 601C400 601 350 601 300 601C250 601 200 601 150 601C100 601 50 601 25 601L0 601Z" fill="#ff005d" stroke-linecap="round" stroke-linejoin="miter"></path></svg>